Coordinates
version=1
nRows=6
nColumns=38
inDegrees=yes

Units are S.I. units (second, meters, Newtons, ...)
Angles are in degrees.

endheader
time	pelvis_tilt	pelvis_list	pelvis_rotation	pelvis_tx	pelvis_ty	pelvis_tz	hip_flexion_r	hip_adduction_r	hip_rotation_r	knee_angle_r	ankle_angle_r	subtalar_angle_r	mtp_angle_r	hip_flexion_l	hip_adduction_l	hip_rotation_l	knee_angle_l	ankle_angle_l	subtalar_angle_l	mtp_angle_l	lumbar_extension	lumbar_bending	lumbar_rotation	arm_flex_r	arm_add_r	arm_rot_r	elbow_flex_r	pro_sup_r	wrist_flex_r	wrist_dev_r	arm_flex_l	arm_add_l	arm_rot_l	elbow_flex_l	pro_sup_l	wrist_flex_l	wrist_dev_l
      2.70000000	      1.84359381	     -1.99286558	     -2.17984687	      0.10067363	      0.89082709	      0.27992348	    -18.58542753	      5.62986814	     -5.19659481	    -16.16069057	     13.08912179	      9.56072404	      7.69661534	     29.17580611	      0.81202252	     -0.94101717	    -14.87508731	      3.61824534	      2.99843483	      7.33214054	     -7.40151358	      3.69319138	      5.10650177	      1.75382987	    -23.55968856	     11.16837726	     37.63570576	     86.51662706	      0.00000000	      0.00000000	     -6.97319559	    -11.74681885	     19.25658427	     11.79259263	     85.94366927	      0.00000000	      0.00000000
      2.71000000	      1.67600401	     -1.67771959	     -2.38571519	      0.11643233	      0.88924930	      0.28033072	    -18.82522321	      5.05321478	     -5.22154270	    -17.23327736	     12.21334397	     10.01668120	      9.40032212	     29.21750431	      1.28684392	     -0.75347708	    -16.16803295	      2.41915673	      2.34465249	      7.34835722	     -6.92122037	      3.26580742	      5.21640922	      1.31589161	    -23.37105236	     10.92794153	     37.51031275	     86.51662706	      0.00000000	      0.00000000	     -7.24098445	    -11.75841764	     19.60251509	     11.49001399	     85.94366927	      0.00000000	      0.00000000
      2.72000000	      1.48432006	     -1.29092892	     -2.50248318	      0.13237869	      0.88771636	      0.28061417	    -18.96050720	      4.43053137	     -5.25807665	    -18.41319006	     11.05856345	     10.32369407	     11.41224955	     29.27210530	      1.88149922	     -0.44252978	    -17.46248105	      0.87049440	      1.45698183	      7.33305670	     -6.37633207	      2.75123712	      5.19853698	      0.83973737	    -23.11931258	     10.65211394	     37.32159632	     86.51662706	      0.00000000	      0.00000000	     -7.52666981	    -11.80270583	     19.90567422	     11.21477432	     85.94366927	      0.00000000	      0.00000000
      2.73000000	      1.28666296	     -0.82518217	     -2.51919757	      0.14840739	      0.88652614	      0.28071679	    -18.96485504	      3.76228908	     -5.31856241	    -19.73563875	      9.55188741	     10.46359939	     13.69485915	     29.36869835	      2.57815315	     -0.03046876	    -18.74013070	     -0.90522652	      0.41584994	      7.28463714	     -5.79338997	      2.14822626	      5.04861475	      0.34241536	    -22.80365424	     10.33902980	     37.06377795	     86.51662706	      0.00000000	      0.00000000	     -7.80860091	    -11.87547952	     20.15592403	     10.96649544	     85.94366927	      0.00000000	      0.00000000
      2.74000000	      1.09213550	     -0.27469388	     -2.43970937	      0.16435836	      0.88592044	      0.28066992	    -18.80980445	      3.04708200	     -5.41213688	    -21.24042559	      7.62375012	     10.42468968	     16.17883509	     29.50166649	      3.35391826	      0.46008679	    -20.02692462	     -2.73477616	     -0.70045575	      7.20645927	     -5.20216049	      1.45704188	      4.78020795	     -0.16446385	    -22.42664448	      9.98903210	     36.73710036	     86.51662706	      0.00000000	      0.00000000	     -8.06602321	    -11.97370576	     20.34316347	     10.74876467	     85.94366927	      0.00000000	      0.00000000
      2.75000000	      0.90324930	      0.35580535	     -2.28265295	      0.18010936	      0.88595504	      0.28056249	    -18.47115826	      2.28445393	     -5.54012065	    -22.96600735	      5.22548887	     10.19834188	     18.76577237	     29.63670519	      4.18721755	      1.00464221	    -21.35491938	     -4.42629845	     -1.81863821	      7.10335951	     -4.63057319	      0.68374476	      4.42340442	     -0.67537202	    -21.99538723	      9.60613559	     36.34813207	     86.51662706	      0.00000000	      0.00000000	     -8.28252098	    -12.09582807	     20.45777580	     10.56952374	     85.94366927	      0.00000000	      0.00000000
